<mxfile host="Electron" modified="2023-04-18T13:16:59.788Z" agent="Mozilla/5.0 (Windows NT 10.0; Win64; x64) AppleWebKit/537.36 (KHTML, like Gecko) draw.io/21.1.2 Chrome/106.0.5249.199 Electron/21.4.3 Safari/537.36" etag="B00GdsaUszvbLup_4xNr" version="21.1.2" type="device" pages="3">
  <diagram name="CLA" id="1N_0-jpvwwObbNZj5UZM">
    <mxGraphModel dx="749" dy="588" grid="0" gridSize="10" guides="1" tooltips="1" connect="1" arrows="1" fold="1" page="0" pageScale="1" pageWidth="850" pageHeight="1100" math="0" shadow="0">
      <root>
        <mxCell id="0" />
        <mxCell id="1" parent="0" />
        <mxCell id="7bIylapcQ7lrpKx6OoXC-37" style="edgeStyle=orthogonalEdgeStyle;rounded=0;orthogonalLoop=1;jettySize=auto;html=1;exitX=0.75;exitY=1;exitDx=0;exitDy=0;entryX=0.75;entryY=0;entryDx=0;entryDy=0;" parent="1" source="7bIylapcQ7lrpKx6OoXC-1" target="7bIylapcQ7lrpKx6OoXC-2" edge="1">
          <mxGeometry relative="1" as="geometry" />
        </mxCell>
        <mxCell id="7bIylapcQ7lrpKx6OoXC-38" style="edgeStyle=orthogonalEdgeStyle;rounded=0;orthogonalLoop=1;jettySize=auto;html=1;exitX=0.25;exitY=1;exitDx=0;exitDy=0;entryX=0.25;entryY=0;entryDx=0;entryDy=0;" parent="1" source="7bIylapcQ7lrpKx6OoXC-1" target="7bIylapcQ7lrpKx6OoXC-2" edge="1">
          <mxGeometry relative="1" as="geometry" />
        </mxCell>
        <mxCell id="7bIylapcQ7lrpKx6OoXC-71" style="edgeStyle=orthogonalEdgeStyle;rounded=0;orthogonalLoop=1;jettySize=auto;html=1;exitX=1;exitY=0.25;exitDx=0;exitDy=0;" parent="1" source="7bIylapcQ7lrpKx6OoXC-1" edge="1">
          <mxGeometry relative="1" as="geometry">
            <mxPoint x="268.24060379831417" y="164.6090328818874" as="targetPoint" />
          </mxGeometry>
        </mxCell>
        <mxCell id="7bIylapcQ7lrpKx6OoXC-1" value="ripple_carry_adder" style="rounded=0;whiteSpace=wrap;html=1;" parent="1" vertex="1">
          <mxGeometry x="97.14" y="276" width="120" height="60" as="geometry" />
        </mxCell>
        <mxCell id="7bIylapcQ7lrpKx6OoXC-60" style="edgeStyle=orthogonalEdgeStyle;rounded=0;orthogonalLoop=1;jettySize=auto;html=1;exitX=0;exitY=0.25;exitDx=0;exitDy=0;" parent="1" source="7bIylapcQ7lrpKx6OoXC-2" edge="1">
          <mxGeometry relative="1" as="geometry">
            <mxPoint x="23.997223510742188" y="428" as="targetPoint" />
          </mxGeometry>
        </mxCell>
        <mxCell id="7bIylapcQ7lrpKx6OoXC-61" style="edgeStyle=orthogonalEdgeStyle;rounded=0;orthogonalLoop=1;jettySize=auto;html=1;exitX=0;exitY=0.75;exitDx=0;exitDy=0;" parent="1" source="7bIylapcQ7lrpKx6OoXC-2" edge="1">
          <mxGeometry relative="1" as="geometry">
            <mxPoint x="25.711517944335938" y="458" as="targetPoint" />
          </mxGeometry>
        </mxCell>
        <mxCell id="7bIylapcQ7lrpKx6OoXC-2" value="carry_generator" style="rounded=0;whiteSpace=wrap;html=1;" parent="1" vertex="1">
          <mxGeometry x="97.14" y="413" width="120" height="60" as="geometry" />
        </mxCell>
        <mxCell id="7bIylapcQ7lrpKx6OoXC-35" style="edgeStyle=orthogonalEdgeStyle;rounded=0;orthogonalLoop=1;jettySize=auto;html=1;exitX=0.75;exitY=1;exitDx=0;exitDy=0;entryX=0.75;entryY=0;entryDx=0;entryDy=0;" parent="1" source="7bIylapcQ7lrpKx6OoXC-3" target="7bIylapcQ7lrpKx6OoXC-8" edge="1">
          <mxGeometry relative="1" as="geometry" />
        </mxCell>
        <mxCell id="7bIylapcQ7lrpKx6OoXC-36" style="edgeStyle=orthogonalEdgeStyle;rounded=0;orthogonalLoop=1;jettySize=auto;html=1;exitX=0.25;exitY=1;exitDx=0;exitDy=0;entryX=0.25;entryY=0;entryDx=0;entryDy=0;" parent="1" source="7bIylapcQ7lrpKx6OoXC-3" target="7bIylapcQ7lrpKx6OoXC-8" edge="1">
          <mxGeometry relative="1" as="geometry" />
        </mxCell>
        <mxCell id="7bIylapcQ7lrpKx6OoXC-69" style="edgeStyle=orthogonalEdgeStyle;rounded=0;orthogonalLoop=1;jettySize=auto;html=1;exitX=1;exitY=0.25;exitDx=0;exitDy=0;" parent="1" source="7bIylapcQ7lrpKx6OoXC-3" edge="1">
          <mxGeometry relative="1" as="geometry">
            <mxPoint x="489.5939780787419" y="173.03008551346636" as="targetPoint" />
          </mxGeometry>
        </mxCell>
        <mxCell id="7bIylapcQ7lrpKx6OoXC-3" value="ripple_carry_adder" style="rounded=0;whiteSpace=wrap;html=1;" parent="1" vertex="1">
          <mxGeometry x="324.14" y="279" width="120" height="60" as="geometry" />
        </mxCell>
        <mxCell id="7bIylapcQ7lrpKx6OoXC-33" style="edgeStyle=orthogonalEdgeStyle;rounded=0;orthogonalLoop=1;jettySize=auto;html=1;exitX=0.25;exitY=1;exitDx=0;exitDy=0;entryX=0.25;entryY=0;entryDx=0;entryDy=0;" parent="1" source="7bIylapcQ7lrpKx6OoXC-4" target="7bIylapcQ7lrpKx6OoXC-7" edge="1">
          <mxGeometry relative="1" as="geometry" />
        </mxCell>
        <mxCell id="7bIylapcQ7lrpKx6OoXC-34" style="edgeStyle=orthogonalEdgeStyle;rounded=0;orthogonalLoop=1;jettySize=auto;html=1;exitX=0.75;exitY=1;exitDx=0;exitDy=0;entryX=0.75;entryY=0;entryDx=0;entryDy=0;" parent="1" source="7bIylapcQ7lrpKx6OoXC-4" target="7bIylapcQ7lrpKx6OoXC-7" edge="1">
          <mxGeometry relative="1" as="geometry" />
        </mxCell>
        <mxCell id="7bIylapcQ7lrpKx6OoXC-64" style="edgeStyle=orthogonalEdgeStyle;rounded=0;orthogonalLoop=1;jettySize=auto;html=1;exitX=1;exitY=0.25;exitDx=0;exitDy=0;" parent="1" source="7bIylapcQ7lrpKx6OoXC-4" edge="1">
          <mxGeometry relative="1" as="geometry">
            <mxPoint x="698.315837659334" y="169.4210927862871" as="targetPoint" />
          </mxGeometry>
        </mxCell>
        <mxCell id="7bIylapcQ7lrpKx6OoXC-4" value="ripple_carry_adder" style="rounded=0;whiteSpace=wrap;html=1;" parent="1" vertex="1">
          <mxGeometry x="540.14" y="276" width="120" height="60" as="geometry" />
        </mxCell>
        <mxCell id="7bIylapcQ7lrpKx6OoXC-23" style="edgeStyle=orthogonalEdgeStyle;rounded=0;orthogonalLoop=1;jettySize=auto;html=1;exitX=0.25;exitY=1;exitDx=0;exitDy=0;entryX=0.25;entryY=0;entryDx=0;entryDy=0;" parent="1" source="7bIylapcQ7lrpKx6OoXC-5" target="7bIylapcQ7lrpKx6OoXC-6" edge="1">
          <mxGeometry relative="1" as="geometry" />
        </mxCell>
        <mxCell id="7bIylapcQ7lrpKx6OoXC-24" style="edgeStyle=orthogonalEdgeStyle;rounded=0;orthogonalLoop=1;jettySize=auto;html=1;exitX=0.75;exitY=1;exitDx=0;exitDy=0;entryX=0.75;entryY=0;entryDx=0;entryDy=0;" parent="1" source="7bIylapcQ7lrpKx6OoXC-5" target="7bIylapcQ7lrpKx6OoXC-6" edge="1">
          <mxGeometry relative="1" as="geometry" />
        </mxCell>
        <mxCell id="7bIylapcQ7lrpKx6OoXC-65" style="edgeStyle=orthogonalEdgeStyle;rounded=0;orthogonalLoop=1;jettySize=auto;html=1;exitX=1;exitY=0.25;exitDx=0;exitDy=0;" parent="1" source="7bIylapcQ7lrpKx6OoXC-5" edge="1">
          <mxGeometry relative="1" as="geometry">
            <mxPoint x="904.0300774825248" y="173.03011763723282" as="targetPoint" />
          </mxGeometry>
        </mxCell>
        <mxCell id="7bIylapcQ7lrpKx6OoXC-5" value="ripple_carry_adder" style="rounded=0;whiteSpace=wrap;html=1;" parent="1" vertex="1">
          <mxGeometry x="744.14" y="276" width="120" height="60" as="geometry" />
        </mxCell>
        <mxCell id="7bIylapcQ7lrpKx6OoXC-27" style="edgeStyle=orthogonalEdgeStyle;rounded=0;orthogonalLoop=1;jettySize=auto;html=1;exitX=0;exitY=0.5;exitDx=0;exitDy=0;entryX=1;entryY=0.5;entryDx=0;entryDy=0;" parent="1" source="7bIylapcQ7lrpKx6OoXC-6" target="7bIylapcQ7lrpKx6OoXC-7" edge="1">
          <mxGeometry relative="1" as="geometry" />
        </mxCell>
        <mxCell id="7bIylapcQ7lrpKx6OoXC-63" style="edgeStyle=orthogonalEdgeStyle;rounded=0;orthogonalLoop=1;jettySize=auto;html=1;exitX=0;exitY=0.5;exitDx=0;exitDy=0;entryX=1;entryY=0.75;entryDx=0;entryDy=0;" parent="1" source="7bIylapcQ7lrpKx6OoXC-6" target="7bIylapcQ7lrpKx6OoXC-4" edge="1">
          <mxGeometry relative="1" as="geometry" />
        </mxCell>
        <mxCell id="7bIylapcQ7lrpKx6OoXC-6" value="carry_generator" style="rounded=0;whiteSpace=wrap;html=1;" parent="1" vertex="1">
          <mxGeometry x="744.14" y="413" width="120" height="60" as="geometry" />
        </mxCell>
        <mxCell id="7bIylapcQ7lrpKx6OoXC-29" style="edgeStyle=orthogonalEdgeStyle;rounded=0;orthogonalLoop=1;jettySize=auto;html=1;exitX=0;exitY=0.5;exitDx=0;exitDy=0;entryX=1;entryY=0.5;entryDx=0;entryDy=0;" parent="1" source="7bIylapcQ7lrpKx6OoXC-7" target="7bIylapcQ7lrpKx6OoXC-8" edge="1">
          <mxGeometry relative="1" as="geometry" />
        </mxCell>
        <mxCell id="7bIylapcQ7lrpKx6OoXC-68" style="edgeStyle=orthogonalEdgeStyle;rounded=0;orthogonalLoop=1;jettySize=auto;html=1;exitX=0;exitY=0.5;exitDx=0;exitDy=0;entryX=1;entryY=0.75;entryDx=0;entryDy=0;" parent="1" source="7bIylapcQ7lrpKx6OoXC-7" target="7bIylapcQ7lrpKx6OoXC-3" edge="1">
          <mxGeometry relative="1" as="geometry" />
        </mxCell>
        <mxCell id="7bIylapcQ7lrpKx6OoXC-7" value="carry_generator" style="rounded=0;whiteSpace=wrap;html=1;" parent="1" vertex="1">
          <mxGeometry x="540.14" y="413" width="120" height="60" as="geometry" />
        </mxCell>
        <mxCell id="7bIylapcQ7lrpKx6OoXC-31" style="edgeStyle=orthogonalEdgeStyle;rounded=0;orthogonalLoop=1;jettySize=auto;html=1;exitX=0;exitY=0.5;exitDx=0;exitDy=0;" parent="1" source="7bIylapcQ7lrpKx6OoXC-8" target="7bIylapcQ7lrpKx6OoXC-2" edge="1">
          <mxGeometry relative="1" as="geometry" />
        </mxCell>
        <mxCell id="7bIylapcQ7lrpKx6OoXC-70" style="edgeStyle=orthogonalEdgeStyle;rounded=0;orthogonalLoop=1;jettySize=auto;html=1;exitX=0;exitY=0.5;exitDx=0;exitDy=0;entryX=1;entryY=0.75;entryDx=0;entryDy=0;" parent="1" source="7bIylapcQ7lrpKx6OoXC-8" target="7bIylapcQ7lrpKx6OoXC-1" edge="1">
          <mxGeometry relative="1" as="geometry" />
        </mxCell>
        <mxCell id="7bIylapcQ7lrpKx6OoXC-8" value="carry_generator" style="rounded=0;whiteSpace=wrap;html=1;" parent="1" vertex="1">
          <mxGeometry x="324.14" y="413" width="120" height="60" as="geometry" />
        </mxCell>
        <mxCell id="7bIylapcQ7lrpKx6OoXC-19" style="edgeStyle=orthogonalEdgeStyle;rounded=0;orthogonalLoop=1;jettySize=auto;html=1;entryX=0.25;entryY=0;entryDx=0;entryDy=0;" parent="1" source="7bIylapcQ7lrpKx6OoXC-10" target="7bIylapcQ7lrpKx6OoXC-5" edge="1">
          <mxGeometry relative="1" as="geometry" />
        </mxCell>
        <mxCell id="7bIylapcQ7lrpKx6OoXC-10" value="&lt;font color=&quot;#0000ff&quot;&gt;A[3:0]&lt;/font&gt;" style="text;html=1;align=center;verticalAlign=middle;resizable=0;points=[];autosize=1;strokeColor=none;fillColor=none;" parent="1" vertex="1">
          <mxGeometry x="749.14" y="217" width="49" height="26" as="geometry" />
        </mxCell>
        <mxCell id="7bIylapcQ7lrpKx6OoXC-40" style="edgeStyle=orthogonalEdgeStyle;rounded=0;orthogonalLoop=1;jettySize=auto;html=1;entryX=0.25;entryY=0;entryDx=0;entryDy=0;" parent="1" source="7bIylapcQ7lrpKx6OoXC-11" target="7bIylapcQ7lrpKx6OoXC-4" edge="1">
          <mxGeometry relative="1" as="geometry" />
        </mxCell>
        <mxCell id="7bIylapcQ7lrpKx6OoXC-11" value="&lt;font color=&quot;#0000ff&quot;&gt;A[7:4]&lt;/font&gt;" style="text;html=1;align=center;verticalAlign=middle;resizable=0;points=[];autosize=1;strokeColor=none;fillColor=none;" parent="1" vertex="1">
          <mxGeometry x="545.14" y="217" width="49" height="26" as="geometry" />
        </mxCell>
        <mxCell id="7bIylapcQ7lrpKx6OoXC-42" style="edgeStyle=orthogonalEdgeStyle;rounded=0;orthogonalLoop=1;jettySize=auto;html=1;entryX=0.25;entryY=0;entryDx=0;entryDy=0;" parent="1" source="7bIylapcQ7lrpKx6OoXC-12" target="7bIylapcQ7lrpKx6OoXC-3" edge="1">
          <mxGeometry relative="1" as="geometry" />
        </mxCell>
        <mxCell id="7bIylapcQ7lrpKx6OoXC-12" value="&lt;font color=&quot;#0000ff&quot;&gt;A[11:8]&lt;/font&gt;" style="text;html=1;align=center;verticalAlign=middle;resizable=0;points=[];autosize=1;strokeColor=none;fillColor=none;" parent="1" vertex="1">
          <mxGeometry x="326.14" y="217" width="55" height="26" as="geometry" />
        </mxCell>
        <mxCell id="7bIylapcQ7lrpKx6OoXC-45" style="edgeStyle=orthogonalEdgeStyle;rounded=0;orthogonalLoop=1;jettySize=auto;html=1;entryX=0.25;entryY=0;entryDx=0;entryDy=0;" parent="1" source="7bIylapcQ7lrpKx6OoXC-13" target="7bIylapcQ7lrpKx6OoXC-1" edge="1">
          <mxGeometry relative="1" as="geometry" />
        </mxCell>
        <mxCell id="7bIylapcQ7lrpKx6OoXC-13" value="&lt;font color=&quot;#0000ff&quot;&gt;A[15:12]&lt;/font&gt;" style="text;html=1;align=center;verticalAlign=middle;resizable=0;points=[];autosize=1;strokeColor=none;fillColor=none;" parent="1" vertex="1">
          <mxGeometry x="96.14" y="217" width="63" height="26" as="geometry" />
        </mxCell>
        <mxCell id="7bIylapcQ7lrpKx6OoXC-20" style="edgeStyle=orthogonalEdgeStyle;rounded=0;orthogonalLoop=1;jettySize=auto;html=1;entryX=0.75;entryY=0;entryDx=0;entryDy=0;" parent="1" source="7bIylapcQ7lrpKx6OoXC-14" target="7bIylapcQ7lrpKx6OoXC-5" edge="1">
          <mxGeometry relative="1" as="geometry" />
        </mxCell>
        <mxCell id="7bIylapcQ7lrpKx6OoXC-14" value="&lt;font color=&quot;#0000ff&quot;&gt;B[3:0]&lt;/font&gt;" style="text;html=1;align=center;verticalAlign=middle;resizable=0;points=[];autosize=1;strokeColor=none;fillColor=none;" parent="1" vertex="1">
          <mxGeometry x="810.14" y="218" width="49" height="26" as="geometry" />
        </mxCell>
        <mxCell id="7bIylapcQ7lrpKx6OoXC-39" style="edgeStyle=orthogonalEdgeStyle;rounded=0;orthogonalLoop=1;jettySize=auto;html=1;entryX=0.75;entryY=0;entryDx=0;entryDy=0;" parent="1" source="7bIylapcQ7lrpKx6OoXC-15" target="7bIylapcQ7lrpKx6OoXC-4" edge="1">
          <mxGeometry relative="1" as="geometry" />
        </mxCell>
        <mxCell id="7bIylapcQ7lrpKx6OoXC-15" value="&lt;font color=&quot;#0000ff&quot;&gt;B[7:4]&lt;/font&gt;" style="text;html=1;align=center;verticalAlign=middle;resizable=0;points=[];autosize=1;strokeColor=none;fillColor=none;" parent="1" vertex="1">
          <mxGeometry x="606.14" y="217" width="49" height="26" as="geometry" />
        </mxCell>
        <mxCell id="7bIylapcQ7lrpKx6OoXC-41" style="edgeStyle=orthogonalEdgeStyle;rounded=0;orthogonalLoop=1;jettySize=auto;html=1;entryX=0.75;entryY=0;entryDx=0;entryDy=0;" parent="1" source="7bIylapcQ7lrpKx6OoXC-16" target="7bIylapcQ7lrpKx6OoXC-3" edge="1">
          <mxGeometry relative="1" as="geometry" />
        </mxCell>
        <mxCell id="7bIylapcQ7lrpKx6OoXC-16" value="&lt;font color=&quot;#0000ff&quot;&gt;B[11:8]&lt;/font&gt;" style="text;html=1;align=center;verticalAlign=middle;resizable=0;points=[];autosize=1;strokeColor=none;fillColor=none;" parent="1" vertex="1">
          <mxGeometry x="386.14" y="219" width="55" height="26" as="geometry" />
        </mxCell>
        <mxCell id="7bIylapcQ7lrpKx6OoXC-43" style="edgeStyle=orthogonalEdgeStyle;rounded=0;orthogonalLoop=1;jettySize=auto;html=1;entryX=0.75;entryY=0;entryDx=0;entryDy=0;" parent="1" source="7bIylapcQ7lrpKx6OoXC-17" target="7bIylapcQ7lrpKx6OoXC-1" edge="1">
          <mxGeometry relative="1" as="geometry" />
        </mxCell>
        <mxCell id="7bIylapcQ7lrpKx6OoXC-17" value="&lt;font color=&quot;#0000ff&quot;&gt;B[15:12]&lt;/font&gt;" style="text;html=1;align=center;verticalAlign=middle;resizable=0;points=[];autosize=1;strokeColor=none;fillColor=none;" parent="1" vertex="1">
          <mxGeometry x="156.14" y="217" width="63" height="26" as="geometry" />
        </mxCell>
        <mxCell id="7bIylapcQ7lrpKx6OoXC-66" style="edgeStyle=orthogonalEdgeStyle;rounded=0;orthogonalLoop=1;jettySize=auto;html=1;entryX=1;entryY=0.75;entryDx=0;entryDy=0;" parent="1" source="7bIylapcQ7lrpKx6OoXC-18" target="7bIylapcQ7lrpKx6OoXC-5" edge="1">
          <mxGeometry relative="1" as="geometry" />
        </mxCell>
        <mxCell id="7bIylapcQ7lrpKx6OoXC-67" style="edgeStyle=orthogonalEdgeStyle;rounded=0;orthogonalLoop=1;jettySize=auto;html=1;entryX=1;entryY=0.5;entryDx=0;entryDy=0;" parent="1" source="7bIylapcQ7lrpKx6OoXC-18" target="7bIylapcQ7lrpKx6OoXC-6" edge="1">
          <mxGeometry relative="1" as="geometry">
            <Array as="points">
              <mxPoint x="908" y="321" />
              <mxPoint x="908" y="443" />
            </Array>
          </mxGeometry>
        </mxCell>
        <mxCell id="7bIylapcQ7lrpKx6OoXC-18" value="&lt;font color=&quot;#0000ff&quot;&gt;Cin&lt;/font&gt;" style="text;html=1;align=center;verticalAlign=middle;resizable=0;points=[];autosize=1;strokeColor=none;fillColor=none;" parent="1" vertex="1">
          <mxGeometry x="933" y="308" width="36" height="26" as="geometry" />
        </mxCell>
        <mxCell id="7bIylapcQ7lrpKx6OoXC-25" value="G[3:0]" style="text;html=1;align=center;verticalAlign=middle;resizable=0;points=[];autosize=1;strokeColor=none;fillColor=none;" parent="1" vertex="1">
          <mxGeometry x="769.14" y="362" width="51" height="26" as="geometry" />
        </mxCell>
        <mxCell id="7bIylapcQ7lrpKx6OoXC-26" value="P[3:0]" style="text;html=1;align=center;verticalAlign=middle;resizable=0;points=[];autosize=1;strokeColor=none;fillColor=none;" parent="1" vertex="1">
          <mxGeometry x="827.14" y="362" width="49" height="26" as="geometry" />
        </mxCell>
        <mxCell id="7bIylapcQ7lrpKx6OoXC-46" value="C1" style="text;html=1;align=center;verticalAlign=middle;resizable=0;points=[];autosize=1;strokeColor=none;fillColor=none;" parent="1" vertex="1">
          <mxGeometry x="704.14" y="421" width="33" height="26" as="geometry" />
        </mxCell>
        <mxCell id="7bIylapcQ7lrpKx6OoXC-47" value="C2" style="text;html=1;align=center;verticalAlign=middle;resizable=0;points=[];autosize=1;strokeColor=none;fillColor=none;" parent="1" vertex="1">
          <mxGeometry x="497.14" y="421" width="33" height="26" as="geometry" />
        </mxCell>
        <mxCell id="7bIylapcQ7lrpKx6OoXC-48" value="C3" style="text;html=1;align=center;verticalAlign=middle;resizable=0;points=[];autosize=1;strokeColor=none;fillColor=none;" parent="1" vertex="1">
          <mxGeometry x="278.14" y="421" width="33" height="26" as="geometry" />
        </mxCell>
        <mxCell id="7bIylapcQ7lrpKx6OoXC-51" value="P[7:4]" style="text;html=1;align=center;verticalAlign=middle;resizable=0;points=[];autosize=1;strokeColor=none;fillColor=none;" parent="1" vertex="1">
          <mxGeometry x="624.14" y="362" width="49" height="26" as="geometry" />
        </mxCell>
        <mxCell id="7bIylapcQ7lrpKx6OoXC-52" value="P[11:8]" style="text;html=1;align=center;verticalAlign=middle;resizable=0;points=[];autosize=1;strokeColor=none;fillColor=none;" parent="1" vertex="1">
          <mxGeometry x="407.14" y="362" width="55" height="26" as="geometry" />
        </mxCell>
        <mxCell id="7bIylapcQ7lrpKx6OoXC-53" value="P[15:12]" style="text;html=1;align=center;verticalAlign=middle;resizable=0;points=[];autosize=1;strokeColor=none;fillColor=none;" parent="1" vertex="1">
          <mxGeometry x="180.14" y="364" width="63" height="26" as="geometry" />
        </mxCell>
        <mxCell id="7bIylapcQ7lrpKx6OoXC-54" value="G[7:4]" style="text;html=1;align=center;verticalAlign=middle;resizable=0;points=[];autosize=1;strokeColor=none;fillColor=none;" parent="1" vertex="1">
          <mxGeometry x="564.14" y="362" width="51" height="26" as="geometry" />
        </mxCell>
        <mxCell id="7bIylapcQ7lrpKx6OoXC-55" value="G[11:8]" style="text;html=1;align=center;verticalAlign=middle;resizable=0;points=[];autosize=1;strokeColor=none;fillColor=none;" parent="1" vertex="1">
          <mxGeometry x="349.14" y="362" width="56" height="26" as="geometry" />
        </mxCell>
        <mxCell id="7bIylapcQ7lrpKx6OoXC-56" value="G[15:12]" style="text;html=1;align=center;verticalAlign=middle;resizable=0;points=[];autosize=1;strokeColor=none;fillColor=none;" parent="1" vertex="1">
          <mxGeometry x="120.13999999999999" y="362" width="64" height="26" as="geometry" />
        </mxCell>
        <mxCell id="7bIylapcQ7lrpKx6OoXC-58" value="&lt;font color=&quot;#ff0000&quot;&gt;OF&lt;/font&gt;" style="text;html=1;align=center;verticalAlign=middle;resizable=0;points=[];autosize=1;strokeColor=none;fillColor=none;" parent="1" vertex="1">
          <mxGeometry x="36.14" y="438" width="35" height="26" as="geometry" />
        </mxCell>
        <mxCell id="7bIylapcQ7lrpKx6OoXC-62" value="&lt;font color=&quot;#ff0000&quot;&gt;CF&lt;/font&gt;" style="text;html=1;align=center;verticalAlign=middle;resizable=0;points=[];autosize=1;strokeColor=none;fillColor=none;" parent="1" vertex="1">
          <mxGeometry x="40.14" y="407" width="34" height="26" as="geometry" />
        </mxCell>
        <mxCell id="7bIylapcQ7lrpKx6OoXC-72" value="&lt;font color=&quot;#ff0000&quot;&gt;S[3:0]&lt;/font&gt;" style="text;html=1;align=center;verticalAlign=middle;resizable=0;points=[];autosize=1;strokeColor=none;fillColor=none;" parent="1" vertex="1">
          <mxGeometry x="876.14" y="139" width="49" height="26" as="geometry" />
        </mxCell>
        <mxCell id="7bIylapcQ7lrpKx6OoXC-73" value="&lt;font color=&quot;#ff0000&quot;&gt;S[7:4]&lt;/font&gt;" style="text;html=1;align=center;verticalAlign=middle;resizable=0;points=[];autosize=1;strokeColor=none;fillColor=none;" parent="1" vertex="1">
          <mxGeometry x="673.14" y="135" width="49" height="26" as="geometry" />
        </mxCell>
        <mxCell id="7bIylapcQ7lrpKx6OoXC-74" value="&lt;font color=&quot;#ff0000&quot;&gt;S[11:8]&lt;/font&gt;" style="text;html=1;align=center;verticalAlign=middle;resizable=0;points=[];autosize=1;strokeColor=none;fillColor=none;" parent="1" vertex="1">
          <mxGeometry x="462" y="135" width="55" height="26" as="geometry" />
        </mxCell>
        <mxCell id="7bIylapcQ7lrpKx6OoXC-75" value="&lt;font color=&quot;#ff0000&quot;&gt;S[15:12]&lt;/font&gt;" style="text;html=1;align=center;verticalAlign=middle;resizable=0;points=[];autosize=1;strokeColor=none;fillColor=none;" parent="1" vertex="1">
          <mxGeometry x="239" y="135" width="63" height="26" as="geometry" />
        </mxCell>
      </root>
    </mxGraphModel>
  </diagram>
  <diagram id="NfcjHB-K8qCnhO4SNnJr" name="CLA_implementation">
    <mxGraphModel dx="749" dy="588" grid="0" gridSize="10" guides="1" tooltips="1" connect="1" arrows="1" fold="1" page="1" pageScale="1" pageWidth="850" pageHeight="1100" math="0" shadow="0">
      <root>
        <mxCell id="0" />
        <mxCell id="1" parent="0" />
        <mxCell id="MomppsjR-9Mt2-9ObYnp-1" value="C0" style="whiteSpace=wrap;html=1;aspect=fixed;" parent="1" vertex="1">
          <mxGeometry x="293" y="105" width="54" height="54" as="geometry" />
        </mxCell>
        <mxCell id="MomppsjR-9Mt2-9ObYnp-2" value="G0" style="whiteSpace=wrap;html=1;aspect=fixed;" parent="1" vertex="1">
          <mxGeometry x="293" y="159" width="54" height="54" as="geometry" />
        </mxCell>
        <mxCell id="MomppsjR-9Mt2-9ObYnp-3" value="G1" style="whiteSpace=wrap;html=1;aspect=fixed;" parent="1" vertex="1">
          <mxGeometry x="293" y="213" width="54" height="54" as="geometry" />
        </mxCell>
        <mxCell id="MomppsjR-9Mt2-9ObYnp-4" value="G2" style="whiteSpace=wrap;html=1;aspect=fixed;" parent="1" vertex="1">
          <mxGeometry x="293" y="267" width="54" height="54" as="geometry" />
        </mxCell>
        <mxCell id="MomppsjR-9Mt2-9ObYnp-5" value="P0 &amp;amp;C0" style="whiteSpace=wrap;html=1;aspect=fixed;" parent="1" vertex="1">
          <mxGeometry x="239" y="159" width="54" height="54" as="geometry" />
        </mxCell>
        <mxCell id="MomppsjR-9Mt2-9ObYnp-6" value="P1&lt;br&gt;&amp;amp;G0" style="whiteSpace=wrap;html=1;aspect=fixed;" parent="1" vertex="1">
          <mxGeometry x="239" y="213" width="54" height="54" as="geometry" />
        </mxCell>
        <mxCell id="MomppsjR-9Mt2-9ObYnp-7" value="P1&amp;amp;P0&lt;br&gt;&amp;amp;C0" style="whiteSpace=wrap;html=1;aspect=fixed;" parent="1" vertex="1">
          <mxGeometry x="185" y="213" width="54" height="54" as="geometry" />
        </mxCell>
        <mxCell id="MomppsjR-9Mt2-9ObYnp-8" value="P2&lt;br&gt;&amp;amp;G1" style="whiteSpace=wrap;html=1;aspect=fixed;" parent="1" vertex="1">
          <mxGeometry x="239" y="267" width="54" height="54" as="geometry" />
        </mxCell>
        <mxCell id="MomppsjR-9Mt2-9ObYnp-9" value="P2&amp;amp;P1&lt;br&gt;&amp;amp;G0" style="whiteSpace=wrap;html=1;aspect=fixed;" parent="1" vertex="1">
          <mxGeometry x="185" y="267" width="54" height="54" as="geometry" />
        </mxCell>
        <mxCell id="MomppsjR-9Mt2-9ObYnp-10" value="P2&amp;amp;P1&amp;amp;&lt;br&gt;P0&amp;amp;C0" style="whiteSpace=wrap;html=1;aspect=fixed;" parent="1" vertex="1">
          <mxGeometry x="131" y="267" width="54" height="54" as="geometry" />
        </mxCell>
        <mxCell id="MomppsjR-9Mt2-9ObYnp-11" value="G3" style="whiteSpace=wrap;html=1;aspect=fixed;" parent="1" vertex="1">
          <mxGeometry x="293" y="321" width="54" height="54" as="geometry" />
        </mxCell>
        <mxCell id="MomppsjR-9Mt2-9ObYnp-18" value="P3&lt;br&gt;&amp;amp;G2" style="whiteSpace=wrap;html=1;aspect=fixed;" parent="1" vertex="1">
          <mxGeometry x="239" y="321" width="54" height="54" as="geometry" />
        </mxCell>
        <mxCell id="MomppsjR-9Mt2-9ObYnp-19" value="P3&amp;amp;P2&lt;br&gt;&amp;amp;G1" style="whiteSpace=wrap;html=1;aspect=fixed;" parent="1" vertex="1">
          <mxGeometry x="185" y="321" width="54" height="54" as="geometry" />
        </mxCell>
        <mxCell id="MomppsjR-9Mt2-9ObYnp-20" value="P3&amp;amp;P2&lt;br&gt;&amp;amp;P1&amp;amp;G0" style="whiteSpace=wrap;html=1;aspect=fixed;" parent="1" vertex="1">
          <mxGeometry x="131" y="321" width="54" height="54" as="geometry" />
        </mxCell>
        <mxCell id="MomppsjR-9Mt2-9ObYnp-21" value="P3&amp;amp;P2&lt;br&gt;&amp;amp;P1&amp;amp;P0&lt;br&gt;&amp;amp;C0" style="whiteSpace=wrap;html=1;aspect=fixed;" parent="1" vertex="1">
          <mxGeometry x="77" y="321" width="54" height="54" as="geometry" />
        </mxCell>
      </root>
    </mxGraphModel>
  </diagram>
  <diagram id="j-XSX-sNj_r2Mrvlt03B" name="CSA">
    <mxGraphModel dx="1099" dy="653" grid="0" gridSize="10" guides="1" tooltips="1" connect="1" arrows="1" fold="1" page="1" pageScale="1" pageWidth="850" pageHeight="1100" math="0" shadow="0">
      <root>
        <mxCell id="0" />
        <mxCell id="1" parent="0" />
        <mxCell id="6Q6LOmMNZjFWB3ooYuXU-64" style="edgeStyle=orthogonalEdgeStyle;rounded=0;orthogonalLoop=1;jettySize=auto;html=1;exitX=0.5;exitY=1;exitDx=0;exitDy=0;entryX=0.5;entryY=1;entryDx=0;entryDy=0;" edge="1" parent="1" source="6Q6LOmMNZjFWB3ooYuXU-1" target="6Q6LOmMNZjFWB3ooYuXU-53">
          <mxGeometry relative="1" as="geometry" />
        </mxCell>
        <mxCell id="6Q6LOmMNZjFWB3ooYuXU-1" value="ripple_carry_adder*2" style="rounded=0;whiteSpace=wrap;html=1;" vertex="1" parent="1">
          <mxGeometry x="19" y="277" width="120" height="60" as="geometry" />
        </mxCell>
        <mxCell id="6Q6LOmMNZjFWB3ooYuXU-63" style="edgeStyle=orthogonalEdgeStyle;rounded=0;orthogonalLoop=1;jettySize=auto;html=1;exitX=0.5;exitY=1;exitDx=0;exitDy=0;entryX=0.5;entryY=1;entryDx=0;entryDy=0;" edge="1" parent="1" source="6Q6LOmMNZjFWB3ooYuXU-2" target="6Q6LOmMNZjFWB3ooYuXU-50">
          <mxGeometry relative="1" as="geometry" />
        </mxCell>
        <mxCell id="6Q6LOmMNZjFWB3ooYuXU-2" value="ripple_carry_adder*2" style="rounded=0;whiteSpace=wrap;html=1;" vertex="1" parent="1">
          <mxGeometry x="246" y="280" width="120" height="60" as="geometry" />
        </mxCell>
        <mxCell id="6Q6LOmMNZjFWB3ooYuXU-44" style="edgeStyle=orthogonalEdgeStyle;rounded=0;orthogonalLoop=1;jettySize=auto;html=1;exitX=0.5;exitY=1;exitDx=0;exitDy=0;" edge="1" parent="1" source="6Q6LOmMNZjFWB3ooYuXU-3" target="6Q6LOmMNZjFWB3ooYuXU-38">
          <mxGeometry relative="1" as="geometry" />
        </mxCell>
        <mxCell id="6Q6LOmMNZjFWB3ooYuXU-3" value="ripple_carry_adder*2" style="rounded=0;whiteSpace=wrap;html=1;" vertex="1" parent="1">
          <mxGeometry x="462" y="277" width="120" height="60" as="geometry" />
        </mxCell>
        <mxCell id="6Q6LOmMNZjFWB3ooYuXU-45" style="edgeStyle=orthogonalEdgeStyle;rounded=0;orthogonalLoop=1;jettySize=auto;html=1;exitX=0;exitY=0.5;exitDx=0;exitDy=0;entryX=0;entryY=0.5;entryDx=0;entryDy=0;" edge="1" parent="1" source="6Q6LOmMNZjFWB3ooYuXU-4" target="6Q6LOmMNZjFWB3ooYuXU-38">
          <mxGeometry relative="1" as="geometry">
            <Array as="points">
              <mxPoint x="640.86" y="307" />
              <mxPoint x="640.86" y="482" />
            </Array>
          </mxGeometry>
        </mxCell>
        <mxCell id="6Q6LOmMNZjFWB3ooYuXU-59" style="edgeStyle=orthogonalEdgeStyle;rounded=0;orthogonalLoop=1;jettySize=auto;html=1;exitX=0.5;exitY=1;exitDx=0;exitDy=0;" edge="1" parent="1" source="6Q6LOmMNZjFWB3ooYuXU-4">
          <mxGeometry relative="1" as="geometry">
            <mxPoint x="725.86" y="564.285758972168" as="targetPoint" />
          </mxGeometry>
        </mxCell>
        <mxCell id="6Q6LOmMNZjFWB3ooYuXU-4" value="ripple_carry_adder" style="rounded=0;whiteSpace=wrap;html=1;" vertex="1" parent="1">
          <mxGeometry x="666" y="277" width="120" height="60" as="geometry" />
        </mxCell>
        <mxCell id="6Q6LOmMNZjFWB3ooYuXU-5" style="edgeStyle=orthogonalEdgeStyle;rounded=0;orthogonalLoop=1;jettySize=auto;html=1;entryX=0.25;entryY=0;entryDx=0;entryDy=0;" edge="1" parent="1" source="6Q6LOmMNZjFWB3ooYuXU-6" target="6Q6LOmMNZjFWB3ooYuXU-4">
          <mxGeometry relative="1" as="geometry" />
        </mxCell>
        <mxCell id="6Q6LOmMNZjFWB3ooYuXU-6" value="&lt;font color=&quot;#0000ff&quot;&gt;A[3:0]&lt;/font&gt;" style="text;html=1;align=center;verticalAlign=middle;resizable=0;points=[];autosize=1;strokeColor=none;fillColor=none;" vertex="1" parent="1">
          <mxGeometry x="671" y="218" width="49" height="26" as="geometry" />
        </mxCell>
        <mxCell id="6Q6LOmMNZjFWB3ooYuXU-7" style="edgeStyle=orthogonalEdgeStyle;rounded=0;orthogonalLoop=1;jettySize=auto;html=1;entryX=0.25;entryY=0;entryDx=0;entryDy=0;" edge="1" parent="1" source="6Q6LOmMNZjFWB3ooYuXU-8" target="6Q6LOmMNZjFWB3ooYuXU-3">
          <mxGeometry relative="1" as="geometry" />
        </mxCell>
        <mxCell id="6Q6LOmMNZjFWB3ooYuXU-8" value="&lt;font color=&quot;#0000ff&quot;&gt;A[7:4]&lt;/font&gt;" style="text;html=1;align=center;verticalAlign=middle;resizable=0;points=[];autosize=1;strokeColor=none;fillColor=none;" vertex="1" parent="1">
          <mxGeometry x="467" y="218" width="49" height="26" as="geometry" />
        </mxCell>
        <mxCell id="6Q6LOmMNZjFWB3ooYuXU-9" style="edgeStyle=orthogonalEdgeStyle;rounded=0;orthogonalLoop=1;jettySize=auto;html=1;entryX=0.25;entryY=0;entryDx=0;entryDy=0;" edge="1" parent="1" source="6Q6LOmMNZjFWB3ooYuXU-10" target="6Q6LOmMNZjFWB3ooYuXU-2">
          <mxGeometry relative="1" as="geometry" />
        </mxCell>
        <mxCell id="6Q6LOmMNZjFWB3ooYuXU-10" value="&lt;font color=&quot;#0000ff&quot;&gt;A[11:8]&lt;/font&gt;" style="text;html=1;align=center;verticalAlign=middle;resizable=0;points=[];autosize=1;strokeColor=none;fillColor=none;" vertex="1" parent="1">
          <mxGeometry x="248" y="218" width="55" height="26" as="geometry" />
        </mxCell>
        <mxCell id="6Q6LOmMNZjFWB3ooYuXU-11" style="edgeStyle=orthogonalEdgeStyle;rounded=0;orthogonalLoop=1;jettySize=auto;html=1;entryX=0.25;entryY=0;entryDx=0;entryDy=0;" edge="1" parent="1" source="6Q6LOmMNZjFWB3ooYuXU-12" target="6Q6LOmMNZjFWB3ooYuXU-1">
          <mxGeometry relative="1" as="geometry" />
        </mxCell>
        <mxCell id="6Q6LOmMNZjFWB3ooYuXU-12" value="&lt;font color=&quot;#0000ff&quot;&gt;A[15:12]&lt;/font&gt;" style="text;html=1;align=center;verticalAlign=middle;resizable=0;points=[];autosize=1;strokeColor=none;fillColor=none;" vertex="1" parent="1">
          <mxGeometry x="18" y="218" width="63" height="26" as="geometry" />
        </mxCell>
        <mxCell id="6Q6LOmMNZjFWB3ooYuXU-13" style="edgeStyle=orthogonalEdgeStyle;rounded=0;orthogonalLoop=1;jettySize=auto;html=1;entryX=0.75;entryY=0;entryDx=0;entryDy=0;" edge="1" parent="1" source="6Q6LOmMNZjFWB3ooYuXU-14" target="6Q6LOmMNZjFWB3ooYuXU-4">
          <mxGeometry relative="1" as="geometry" />
        </mxCell>
        <mxCell id="6Q6LOmMNZjFWB3ooYuXU-14" value="&lt;font color=&quot;#0000ff&quot;&gt;B[3:0]&lt;/font&gt;" style="text;html=1;align=center;verticalAlign=middle;resizable=0;points=[];autosize=1;strokeColor=none;fillColor=none;" vertex="1" parent="1">
          <mxGeometry x="732" y="219" width="49" height="26" as="geometry" />
        </mxCell>
        <mxCell id="6Q6LOmMNZjFWB3ooYuXU-15" style="edgeStyle=orthogonalEdgeStyle;rounded=0;orthogonalLoop=1;jettySize=auto;html=1;entryX=0.75;entryY=0;entryDx=0;entryDy=0;" edge="1" parent="1" source="6Q6LOmMNZjFWB3ooYuXU-16" target="6Q6LOmMNZjFWB3ooYuXU-3">
          <mxGeometry relative="1" as="geometry" />
        </mxCell>
        <mxCell id="6Q6LOmMNZjFWB3ooYuXU-16" value="&lt;font color=&quot;#0000ff&quot;&gt;B[7:4]&lt;/font&gt;" style="text;html=1;align=center;verticalAlign=middle;resizable=0;points=[];autosize=1;strokeColor=none;fillColor=none;" vertex="1" parent="1">
          <mxGeometry x="528" y="218" width="49" height="26" as="geometry" />
        </mxCell>
        <mxCell id="6Q6LOmMNZjFWB3ooYuXU-17" style="edgeStyle=orthogonalEdgeStyle;rounded=0;orthogonalLoop=1;jettySize=auto;html=1;entryX=0.75;entryY=0;entryDx=0;entryDy=0;" edge="1" parent="1" source="6Q6LOmMNZjFWB3ooYuXU-18" target="6Q6LOmMNZjFWB3ooYuXU-2">
          <mxGeometry relative="1" as="geometry" />
        </mxCell>
        <mxCell id="6Q6LOmMNZjFWB3ooYuXU-18" value="&lt;font color=&quot;#0000ff&quot;&gt;B[11:8]&lt;/font&gt;" style="text;html=1;align=center;verticalAlign=middle;resizable=0;points=[];autosize=1;strokeColor=none;fillColor=none;" vertex="1" parent="1">
          <mxGeometry x="308" y="220" width="55" height="26" as="geometry" />
        </mxCell>
        <mxCell id="6Q6LOmMNZjFWB3ooYuXU-19" style="edgeStyle=orthogonalEdgeStyle;rounded=0;orthogonalLoop=1;jettySize=auto;html=1;entryX=0.75;entryY=0;entryDx=0;entryDy=0;" edge="1" parent="1" source="6Q6LOmMNZjFWB3ooYuXU-20" target="6Q6LOmMNZjFWB3ooYuXU-1">
          <mxGeometry relative="1" as="geometry" />
        </mxCell>
        <mxCell id="6Q6LOmMNZjFWB3ooYuXU-20" value="&lt;font color=&quot;#0000ff&quot;&gt;B[15:12]&lt;/font&gt;" style="text;html=1;align=center;verticalAlign=middle;resizable=0;points=[];autosize=1;strokeColor=none;fillColor=none;" vertex="1" parent="1">
          <mxGeometry x="77.99999999999999" y="218" width="63" height="26" as="geometry" />
        </mxCell>
        <mxCell id="6Q6LOmMNZjFWB3ooYuXU-65" style="edgeStyle=orthogonalEdgeStyle;rounded=0;orthogonalLoop=1;jettySize=auto;html=1;" edge="1" parent="1" source="6Q6LOmMNZjFWB3ooYuXU-22" target="6Q6LOmMNZjFWB3ooYuXU-4">
          <mxGeometry relative="1" as="geometry" />
        </mxCell>
        <mxCell id="6Q6LOmMNZjFWB3ooYuXU-22" value="&lt;font color=&quot;#0000ff&quot;&gt;Cin&lt;/font&gt;" style="text;html=1;align=center;verticalAlign=middle;resizable=0;points=[];autosize=1;strokeColor=none;fillColor=none;" vertex="1" parent="1">
          <mxGeometry x="809" y="294" width="36" height="26" as="geometry" />
        </mxCell>
        <mxCell id="6Q6LOmMNZjFWB3ooYuXU-38" value="" style="shape=trapezoid;perimeter=trapezoidPerimeter;whiteSpace=wrap;html=1;fixedSize=1;direction=west;" vertex="1" parent="1">
          <mxGeometry x="462" y="452" width="120" height="60" as="geometry" />
        </mxCell>
        <mxCell id="6Q6LOmMNZjFWB3ooYuXU-56" style="edgeStyle=orthogonalEdgeStyle;rounded=0;orthogonalLoop=1;jettySize=auto;html=1;" edge="1" parent="1" source="6Q6LOmMNZjFWB3ooYuXU-46">
          <mxGeometry relative="1" as="geometry">
            <mxPoint x="536.36" y="564.8572311401367" as="targetPoint" />
          </mxGeometry>
        </mxCell>
        <mxCell id="6Q6LOmMNZjFWB3ooYuXU-46" value="Sum" style="text;html=1;align=center;verticalAlign=middle;resizable=0;points=[];autosize=1;strokeColor=none;fillColor=none;" vertex="1" parent="1">
          <mxGeometry x="514.86" y="486" width="43" height="26" as="geometry" />
        </mxCell>
        <mxCell id="6Q6LOmMNZjFWB3ooYuXU-60" style="edgeStyle=orthogonalEdgeStyle;rounded=0;orthogonalLoop=1;jettySize=auto;html=1;" edge="1" parent="1" source="6Q6LOmMNZjFWB3ooYuXU-47" target="6Q6LOmMNZjFWB3ooYuXU-50">
          <mxGeometry relative="1" as="geometry">
            <Array as="points">
              <mxPoint x="498.86" y="547" />
              <mxPoint x="407.86" y="547" />
              <mxPoint x="407.86" y="482" />
            </Array>
          </mxGeometry>
        </mxCell>
        <mxCell id="6Q6LOmMNZjFWB3ooYuXU-47" value="Cout" style="text;html=1;align=center;verticalAlign=middle;resizable=0;points=[];autosize=1;strokeColor=none;fillColor=none;" vertex="1" parent="1">
          <mxGeometry x="476.86" y="486" width="43" height="26" as="geometry" />
        </mxCell>
        <mxCell id="6Q6LOmMNZjFWB3ooYuXU-50" value="" style="shape=trapezoid;perimeter=trapezoidPerimeter;whiteSpace=wrap;html=1;fixedSize=1;direction=west;" vertex="1" parent="1">
          <mxGeometry x="246" y="452" width="120" height="60" as="geometry" />
        </mxCell>
        <mxCell id="6Q6LOmMNZjFWB3ooYuXU-57" style="edgeStyle=orthogonalEdgeStyle;rounded=0;orthogonalLoop=1;jettySize=auto;html=1;" edge="1" parent="1" source="6Q6LOmMNZjFWB3ooYuXU-51">
          <mxGeometry relative="1" as="geometry">
            <mxPoint x="320.36" y="563.7142868041992" as="targetPoint" />
          </mxGeometry>
        </mxCell>
        <mxCell id="6Q6LOmMNZjFWB3ooYuXU-51" value="Sum" style="text;html=1;align=center;verticalAlign=middle;resizable=0;points=[];autosize=1;strokeColor=none;fillColor=none;" vertex="1" parent="1">
          <mxGeometry x="298.86" y="486" width="43" height="26" as="geometry" />
        </mxCell>
        <mxCell id="6Q6LOmMNZjFWB3ooYuXU-61" style="edgeStyle=orthogonalEdgeStyle;rounded=0;orthogonalLoop=1;jettySize=auto;html=1;entryX=0;entryY=0.5;entryDx=0;entryDy=0;" edge="1" parent="1" source="6Q6LOmMNZjFWB3ooYuXU-52" target="6Q6LOmMNZjFWB3ooYuXU-53">
          <mxGeometry relative="1" as="geometry">
            <Array as="points">
              <mxPoint x="282.86" y="554" />
              <mxPoint x="189.86" y="554" />
              <mxPoint x="189.86" y="482" />
            </Array>
          </mxGeometry>
        </mxCell>
        <mxCell id="6Q6LOmMNZjFWB3ooYuXU-52" value="Cout" style="text;html=1;align=center;verticalAlign=middle;resizable=0;points=[];autosize=1;strokeColor=none;fillColor=none;" vertex="1" parent="1">
          <mxGeometry x="260.86" y="486" width="43" height="26" as="geometry" />
        </mxCell>
        <mxCell id="6Q6LOmMNZjFWB3ooYuXU-53" value="" style="shape=trapezoid;perimeter=trapezoidPerimeter;whiteSpace=wrap;html=1;fixedSize=1;direction=west;" vertex="1" parent="1">
          <mxGeometry x="10" y="452" width="136.86" height="60" as="geometry" />
        </mxCell>
        <mxCell id="6Q6LOmMNZjFWB3ooYuXU-68" style="edgeStyle=orthogonalEdgeStyle;rounded=0;orthogonalLoop=1;jettySize=auto;html=1;" edge="1" parent="1" source="6Q6LOmMNZjFWB3ooYuXU-54">
          <mxGeometry relative="1" as="geometry">
            <mxPoint x="106.5" y="563.8571701049805" as="targetPoint" />
          </mxGeometry>
        </mxCell>
        <mxCell id="6Q6LOmMNZjFWB3ooYuXU-54" value="Sum" style="text;html=1;align=center;verticalAlign=middle;resizable=0;points=[];autosize=1;strokeColor=none;fillColor=none;" vertex="1" parent="1">
          <mxGeometry x="85.00000000000001" y="486" width="43" height="26" as="geometry" />
        </mxCell>
        <mxCell id="6Q6LOmMNZjFWB3ooYuXU-69" style="edgeStyle=orthogonalEdgeStyle;rounded=0;orthogonalLoop=1;jettySize=auto;html=1;" edge="1" parent="1" source="6Q6LOmMNZjFWB3ooYuXU-55">
          <mxGeometry relative="1" as="geometry">
            <mxPoint x="70.5" y="563.8571701049805" as="targetPoint" />
          </mxGeometry>
        </mxCell>
        <mxCell id="6Q6LOmMNZjFWB3ooYuXU-55" value="Cout" style="text;html=1;align=center;verticalAlign=middle;resizable=0;points=[];autosize=1;strokeColor=none;fillColor=none;" vertex="1" parent="1">
          <mxGeometry x="49.000000000000014" y="486" width="43" height="26" as="geometry" />
        </mxCell>
        <mxCell id="6Q6LOmMNZjFWB3ooYuXU-70" style="edgeStyle=orthogonalEdgeStyle;rounded=0;orthogonalLoop=1;jettySize=auto;html=1;" edge="1" parent="1" source="6Q6LOmMNZjFWB3ooYuXU-66">
          <mxGeometry relative="1" as="geometry">
            <mxPoint x="39.5" y="563.285758972168" as="targetPoint" />
          </mxGeometry>
        </mxCell>
        <mxCell id="6Q6LOmMNZjFWB3ooYuXU-66" value="OF" style="text;html=1;align=center;verticalAlign=middle;resizable=0;points=[];autosize=1;strokeColor=none;fillColor=none;" vertex="1" parent="1">
          <mxGeometry x="22" y="486" width="35" height="26" as="geometry" />
        </mxCell>
        <mxCell id="6Q6LOmMNZjFWB3ooYuXU-71" value="&lt;font color=&quot;#ff0000&quot;&gt;S[3:0]&lt;/font&gt;" style="text;html=1;align=center;verticalAlign=middle;resizable=0;points=[];autosize=1;strokeColor=none;fillColor=none;" vertex="1" parent="1">
          <mxGeometry x="701.5" y="568" width="49" height="26" as="geometry" />
        </mxCell>
        <mxCell id="6Q6LOmMNZjFWB3ooYuXU-72" value="&lt;font color=&quot;#ff0000&quot;&gt;S[7:4]&lt;/font&gt;" style="text;html=1;align=center;verticalAlign=middle;resizable=0;points=[];autosize=1;strokeColor=none;fillColor=none;" vertex="1" parent="1">
          <mxGeometry x="514.86" y="568" width="49" height="26" as="geometry" />
        </mxCell>
        <mxCell id="6Q6LOmMNZjFWB3ooYuXU-73" value="&lt;font color=&quot;#ff0000&quot;&gt;S[11:8]&lt;/font&gt;" style="text;html=1;align=center;verticalAlign=middle;resizable=0;points=[];autosize=1;strokeColor=none;fillColor=none;" vertex="1" parent="1">
          <mxGeometry x="295.86" y="568" width="55" height="26" as="geometry" />
        </mxCell>
        <mxCell id="6Q6LOmMNZjFWB3ooYuXU-74" value="&lt;font color=&quot;#ff0000&quot;&gt;S[15:12]&lt;/font&gt;" style="text;html=1;align=center;verticalAlign=middle;resizable=0;points=[];autosize=1;strokeColor=none;fillColor=none;" vertex="1" parent="1">
          <mxGeometry x="75" y="568" width="63" height="26" as="geometry" />
        </mxCell>
        <mxCell id="6Q6LOmMNZjFWB3ooYuXU-75" value="&lt;font color=&quot;#ff0000&quot;&gt;OF&lt;/font&gt;" style="text;html=1;align=center;verticalAlign=middle;resizable=0;points=[];autosize=1;strokeColor=none;fillColor=none;" vertex="1" parent="1">
          <mxGeometry x="19" y="568" width="35" height="26" as="geometry" />
        </mxCell>
        <mxCell id="6Q6LOmMNZjFWB3ooYuXU-76" value="&lt;font color=&quot;#ff0000&quot;&gt;CF&lt;/font&gt;" style="text;html=1;align=center;verticalAlign=middle;resizable=0;points=[];autosize=1;strokeColor=none;fillColor=none;" vertex="1" parent="1">
          <mxGeometry x="51" y="568" width="34" height="26" as="geometry" />
        </mxCell>
      </root>
    </mxGraphModel>
  </diagram>
</mxfile>
